<?xml version="1.0" encoding="UTF-8" standalone="no"?>
<!-- Created with Inkscape (http://www.inkscape.org/) -->

<svg
   xmlns:dc="http://purl.org/dc/elements/1.1/"
   xmlns:cc="http://creativecommons.org/ns#"
   xmlns:rdf="http://www.w3.org/1999/02/22-rdf-syntax-ns#"
   xmlns:svg="http://www.w3.org/2000/svg"
   xmlns="http://www.w3.org/2000/svg"
   xmlns:sodipodi="http://sodipodi.sourceforge.net/DTD/sodipodi-0.dtd"
   xmlns:inkscape="http://www.inkscape.org/namespaces/inkscape"
   width="128"
   height="128"
   viewBox="0 0 33.866666 33.866668"
   version="1.1"
   id="svg8"
   inkscape:version="0.92.4 (5da689c313, 2019-01-14)"
   sodipodi:docname="8. Medical Package firstaid, medicine, medication, emergency, pubg.svg"
   inkscape:export-filename="D:\Ibrahim\Icon\Inkscape\1. Icon Set\2. Medical\1. Line Style\8. Medical Package firstaid, medicine, medication, emergency, pubg.svg.png"
   inkscape:export-xdpi="96"
   inkscape:export-ydpi="96">
  <defs
     id="defs2">
    <pattern
       y="0"
       x="0"
       height="6"
       width="6"
       patternUnits="userSpaceOnUse"
       id="EMFhbasepattern" />
  </defs>
  <sodipodi:namedview
     id="base"
     pagecolor="#ffffff"
     bordercolor="#666666"
     borderopacity="1.0"
     inkscape:pageopacity="0.0"
     inkscape:pageshadow="2"
     inkscape:zoom="2.8284273"
     inkscape:cx="0.90738122"
     inkscape:cy="46.263153"
     inkscape:document-units="px"
     inkscape:current-layer="layer1"
     showgrid="false"
     units="px"
     inkscape:window-width="1280"
     inkscape:window-height="658"
     inkscape:window-x="-8"
     inkscape:window-y="-8"
     inkscape:window-maximized="1"
     showguides="true">
    <inkscape:grid
       type="xygrid"
       id="grid815"
       empspacing="1"
       originx="0"
       originy="0"
       spacingx="0"
       spacingy="0"
       snapvisiblegridlinesonly="true"
       visible="true"
       enabled="true"
       dotted="false" />
  </sodipodi:namedview>
  <metadata
     id="metadata5">
    <rdf:RDF>
      <cc:Work
         rdf:about="">
        <dc:format>image/svg+xml</dc:format>
        <dc:type
           rdf:resource="http://purl.org/dc/dcmitype/StillImage" />
        <dc:title />
      </cc:Work>
    </rdf:RDF>
  </metadata>
  <g
     inkscape:label="Layer 1"
     inkscape:groupmode="layer"
     id="layer1"
     transform="translate(0,-263.13332)">
    <path
       style="color:#000000;font-style:normal;font-variant:normal;font-weight:normal;font-stretch:normal;font-size:medium;line-height:normal;font-family:sans-serif;font-variant-ligatures:normal;font-variant-position:normal;font-variant-caps:normal;font-variant-numeric:normal;font-variant-alternates:normal;font-feature-settings:normal;text-indent:0;text-align:start;text-decoration:none;text-decoration-line:none;text-decoration-style:solid;text-decoration-color:#000000;letter-spacing:normal;word-spacing:normal;text-transform:none;writing-mode:lr-tb;direction:ltr;text-orientation:mixed;dominant-baseline:auto;baseline-shift:baseline;text-anchor:start;white-space:normal;shape-padding:0;clip-rule:nonzero;display:inline;overflow:visible;visibility:visible;opacity:1;isolation:auto;mix-blend-mode:normal;color-interpolation:sRGB;color-interpolation-filters:linearRGB;solid-color:#000000;solid-opacity:1;vector-effect:none;fill:#8a2be2;fill-opacity:1;fill-rule:nonzero;stroke:none;stroke-width:2;stroke-linecap:round;stroke-linejoin:miter;stroke-miterlimit:4;stroke-dasharray:none;stroke-dashoffset:1.79999995;stroke-opacity:1;paint-order:normal;color-rendering:auto;image-rendering:auto;shape-rendering:auto;text-rendering:auto;enable-background:accumulate"
       d="M 42 9 L 42 10 L 42 29 L 2 29 L 2 30.003906 L 2 119 L 126 119 L 126 29 L 85.998047 29 L 85.998047 9 L 42 9 z M 44 11 L 83.998047 11 L 83.998047 29 L 78.998047 29 L 78.998047 15 L 49 15 L 49 29 L 44 29 L 44 11 z M 51 17 L 76.998047 17 L 76.998047 29 L 51 29 L 51 17 z M 4.0019531 31 L 42 31 L 51 31 L 76.998047 31 L 85.998047 31 L 124 31 L 124 117 L 4.0019531 117 L 4.0019531 31 z M 55.001953 44 L 55.001953 45.003906 L 55.001953 63.996094 L 34.001953 63.996094 L 34.001953 82.001953 L 55.001953 82.001953 L 55.001953 104 L 72.998047 104 L 72.998047 82.001953 L 94 82.001953 L 94 63.996094 L 72.998047 63.996094 L 72.998047 44 L 55.001953 44 z M 57.003906 46 L 70.996094 46 L 70.996094 65.998047 L 91.998047 65.998047 L 91.998047 80 L 70.996094 80 L 70.996094 102 L 57.003906 102 L 57.003906 80 L 36.001953 80 L 36.001953 65.998047 L 57.003906 65.998047 L 57.003906 46 z "
       transform="matrix(0.26458334,0,0,0.26458334,0,263.13332)"
       id="rect2218" />
  </g>
</svg>
